<svg version="1.1" xmlns="http://www.w3.org/2000/svg" xmlns:xlink="http://www.w3.org/1999/xlink" width="400" height="400" viewBox="0 0 400 400"><defs/><g><path fill="#FFFFFF" stroke="rgb(255,0,0)" paint-order="fill stroke markers" d=" M 15 20 L 205 20 L 205 20 A 5 5 0 0 1 210 25 L 210 115 L 210 115 A 5 5 0 0 1 205 120 L 15 120 L 15 120 A 5 5 0 0 1 10 115 L 10 25 L 10 25 A 5 5 0 0 1 15 20 Z" stroke-opacity="1" stroke-linecap="round" stroke-miterlimit="10" stroke-dasharray=""/><path fill="#FFFFFF" stroke="rgb(255,0,0)" paint-order="fill stroke markers" d=" M 40 40 A 10 10 0 1 1 39.99999500000042 39.99000000166666 Z" stroke-opacity="1" stroke-linecap="round" stroke-miterlimit="10" stroke-dasharray=""/><path fill="#FFFFFF" stroke="rgb(255,0,0)" paint-order="fill stroke markers" d=" M 190 40 A 10 10 0 1 1 189.9999950000004 39.99000000166666 Z" stroke-opacity="1" stroke-linecap="round" stroke-miterlimit="10" stroke-dasharray=""/><path fill="none" stroke="rgb(255,0,0)" paint-order="fill stroke markers" d=" M 30 50 L 180 50" stroke-opacity="1" stroke-linecap="round" stroke-miterlimit="10" stroke-dasharray=""/><path fill="#FFFFFF" stroke="rgb(255,0,0)" paint-order="fill stroke markers" d=" M 200 90 L 100 115 L 20 90 Z" stroke-opacity="1" stroke-linecap="round" stroke-miterlimit="10" stroke-dasharray=""/><g><text fill="rgb(0,0,0)" stroke="none" font-family="sans-serif" font-size="30px" font-style="normal" font-weight="normal" text-decoration="undefined" x="25" y="80" text-anchor="start" dominant-baseline="alphabetic" transform="matrix(1 0 0 1 0 0)" fill-opacity="1">BUNIK-1209</text></g></g></svg>